<svg xmlns="http://www.w3.org/2000/svg" xmlns:xlink="http://www.w3.org/1999/xlink" width="900" zoomAndPan="magnify" viewBox="0 0 675 449.999984" height="600" preserveAspectRatio="xMidYMid meet" version="1.0"><defs><clipPath id="fd5a177023"><path d="M 147 365 L 528 365 L 528 389 L 147 389 Z M 147 365 " clip-rule="nonzero"/></clipPath><clipPath id="6c420fc3fa"><path d="M 337.125 388.207031 C 442.128906 388.207031 527.25 383.132812 527.25 376.875 C 527.25 370.617188 442.128906 365.542969 337.125 365.542969 C 232.121094 365.542969 147 370.617188 147 376.875 C 147 383.132812 232.121094 388.207031 337.125 388.207031 Z M 337.125 388.207031 " clip-rule="nonzero"/></clipPath><linearGradient x1="460.298473" gradientTransform="matrix(0.75, 0, 0, 0.75, 0.000012225, 0)" y1="517.775754" x2="460.277471" gradientUnits="userSpaceOnUse" y2="487.209379" id="5c60dc5c77"><stop stop-opacity="1" stop-color="rgb(98.594666%, 98.594666%, 98.594666%)" offset="0"/><stop stop-opacity="1" stop-color="rgb(98.434448%, 98.434448%, 98.434448%)" offset="0.0113972"/><stop stop-opacity="1" stop-color="rgb(98.275757%, 98.275757%, 98.275757%)" offset="0.125"/><stop stop-opacity="1" stop-color="rgb(98.11554%, 98.11554%, 98.11554%)" offset="0.25"/><stop stop-opacity="1" stop-color="rgb(97.795105%, 97.795105%, 97.795105%)" offset="0.375"/><stop stop-opacity="1" stop-color="rgb(97.47467%, 97.47467%, 97.47467%)" offset="0.5"/><stop stop-opacity="1" stop-color="rgb(97.155762%, 97.155762%, 97.155762%)" offset="0.625"/><stop stop-opacity="1" stop-color="rgb(96.835327%, 96.835327%, 96.835327%)" offset="0.75"/><stop stop-opacity="1" stop-color="rgb(96.516418%, 96.516418%, 96.516418%)" offset="0.875"/><stop stop-opacity="1" stop-color="rgb(96.195984%, 96.195984%, 96.195984%)" offset="0.988603"/><stop stop-opacity="1" stop-color="rgb(96.037292%, 96.037292%, 96.037292%)" offset="1"/></linearGradient><clipPath id="cfd50072fc"><path d="M 189 75 L 394 75 L 394 204 L 189 204 Z M 189 75 " clip-rule="nonzero"/></clipPath><clipPath id="8af8fa091d"><path d="M 218.238281 75.75 C 202.742188 75.75 190.0625 88.378906 190.0625 103.820312 C 190.0625 119.257812 202.742188 131.890625 218.238281 131.890625 C 221.34375 131.890625 223.890625 134.425781 223.890625 137.523438 C 223.890625 140.621094 221.34375 143.15625 218.238281 143.15625 L 203.496094 143.15625 C 195.9375 143.15625 189.75 149.320312 189.75 156.851562 C 189.75 164.382812 195.9375 170.546875 203.496094 170.546875 C 210.03125 170.546875 215.382812 175.878906 215.382812 182.390625 C 215.382812 194.277344 225.140625 204 237.070312 204 L 364.386719 204 C 379.882812 204 392.558594 191.371094 392.558594 175.929688 C 392.558594 160.492188 379.882812 147.859375 364.386719 147.859375 L 361.660156 147.859375 C 358.550781 147.859375 356.007812 145.328125 356.007812 142.226562 C 356.007812 139.128906 358.550781 136.59375 361.660156 136.59375 L 380.003906 136.59375 C 387.5625 136.59375 393.75 130.429688 393.75 122.898438 C 393.75 115.375 387.578125 109.21875 380.035156 109.203125 L 365.273438 109.203125 C 358.734375 109.203125 353.386719 103.871094 353.386719 97.359375 C 353.386719 85.472656 343.625 75.75 331.695312 75.75 Z M 218.238281 75.75 " clip-rule="evenodd"/></clipPath><linearGradient x1="394.105107" gradientTransform="matrix(0.75, 0, 0, 0.75, 0.000012225, 0)" y1="272.958268" x2="392.838669" gradientUnits="userSpaceOnUse" y2="99.976208" id="fd756f07e0"><stop stop-opacity="1" stop-color="rgb(98.594666%, 98.594666%, 98.594666%)" offset="0"/><stop stop-opacity="1" stop-color="rgb(98.434448%, 98.434448%, 98.434448%)" offset="0.0115114"/><stop stop-opacity="1" stop-color="rgb(98.275757%, 98.275757%, 98.275757%)" offset="0.125"/><stop stop-opacity="1" stop-color="rgb(98.11554%, 98.11554%, 98.11554%)" offset="0.25"/><stop stop-opacity="1" stop-color="rgb(97.795105%, 97.795105%, 97.795105%)" offset="0.375"/><stop stop-opacity="1" stop-color="rgb(97.47467%, 97.47467%, 97.47467%)" offset="0.5"/><stop stop-opacity="1" stop-color="rgb(97.155762%, 97.155762%, 97.155762%)" offset="0.625"/><stop stop-opacity="1" stop-color="rgb(96.835327%, 96.835327%, 96.835327%)" offset="0.75"/><stop stop-opacity="1" stop-color="rgb(96.516418%, 96.516418%, 96.516418%)" offset="0.875"/><stop stop-opacity="1" stop-color="rgb(96.195984%, 96.195984%, 96.195984%)" offset="0.988489"/><stop stop-opacity="1" stop-color="rgb(96.035767%, 96.035767%, 96.035767%)" offset="1"/></linearGradient><clipPath id="0609802390"><path d="M 168 321 L 184 321 L 184 338 L 168 338 Z M 168 321 " clip-rule="nonzero"/></clipPath><clipPath id="35fed31f18"><path d="M 180.417969 333.796875 C 176.261719 338.027344 168.488281 337.132812 168.488281 337.132812 C 168.488281 337.132812 167.460938 329.382812 171.621094 325.15625 C 175.777344 320.925781 183.546875 321.8125 183.546875 321.8125 C 183.546875 321.8125 184.574219 329.566406 180.417969 333.796875 Z M 180.417969 333.796875 " clip-rule="nonzero"/></clipPath><linearGradient x1="226.024135" gradientTransform="matrix(0.75, 0, 0, 0.75, 0.000012225, 0)" y1="452.450292" x2="242.96309" gradientUnits="userSpaceOnUse" y2="425.897217" id="dcc0a84962"><stop stop-opacity="1" stop-color="rgb(98.731995%, 98.731995%, 98.731995%)" offset="0"/><stop stop-opacity="1" stop-color="rgb(98.554993%, 98.554993%, 98.554993%)" offset="0.125"/><stop stop-opacity="1" stop-color="rgb(98.200989%, 98.200989%, 98.200989%)" offset="0.25"/><stop stop-opacity="1" stop-color="rgb(97.846985%, 97.846985%, 97.846985%)" offset="0.375"/><stop stop-opacity="1" stop-color="rgb(97.492981%, 97.492981%, 97.492981%)" offset="0.38965"/><stop stop-opacity="1" stop-color="rgb(97.315979%, 97.315979%, 97.315979%)" offset="0.5"/><stop stop-opacity="1" stop-color="rgb(97.138977%, 97.138977%, 97.138977%)" offset="0.61035"/><stop stop-opacity="1" stop-color="rgb(96.961975%, 96.961975%, 96.961975%)" offset="0.625"/><stop stop-opacity="1" stop-color="rgb(96.784973%, 96.784973%, 96.784973%)" offset="0.75"/><stop stop-opacity="1" stop-color="rgb(96.430969%, 96.430969%, 96.430969%)" offset="0.875"/><stop stop-opacity="1" stop-color="rgb(96.076965%, 96.076965%, 96.076965%)" offset="1"/></linearGradient><clipPath id="d8ed0d030b"><path d="M 190.070312 78.933594 L 238.066406 78.933594 L 238.066406 124.675781 L 190.070312 124.675781 Z M 190.070312 78.933594 " clip-rule="nonzero"/></clipPath><clipPath id="72cf50a31e"><path d="M 462 68 L 467 68 L 467 77 L 462 77 Z M 462 68 " clip-rule="nonzero"/></clipPath><clipPath id="d5cd8399ac"><path d="M 444.800781 52.132812 L 483.363281 68.773438 L 467.316406 105.957031 L 428.753906 89.316406 Z M 444.800781 52.132812 " clip-rule="nonzero"/></clipPath><clipPath id="9ca787775b"><path d="M 444.800781 52.132812 L 483.363281 68.773438 L 467.316406 105.957031 L 428.753906 89.316406 Z M 444.800781 52.132812 " clip-rule="nonzero"/></clipPath><clipPath id="411f930e95"><path d="M 435 61 L 478 61 L 478 100 L 435 100 Z M 435 61 " clip-rule="nonzero"/></clipPath><clipPath id="d5ccaabd05"><path d="M 444.800781 52.132812 L 483.363281 68.773438 L 467.316406 105.957031 L 428.753906 89.316406 Z M 444.800781 52.132812 " clip-rule="nonzero"/></clipPath><clipPath id="42e3a8f88e"><path d="M 444.800781 52.132812 L 483.363281 68.773438 L 467.316406 105.957031 L 428.753906 89.316406 Z M 444.800781 52.132812 " clip-rule="nonzero"/></clipPath><clipPath id="3b4c0394f9"><path d="M 444.792969 52.144531 L 483.367188 68.789062 L 467.441406 105.699219 L 428.867188 89.054688 Z M 444.792969 52.144531 " clip-rule="nonzero"/></clipPath></defs><g clip-path="url(#fd5a177023)"><g clip-path="url(#6c420fc3fa)"><path fill="url(#5c60dc5c77)" d="M 147 365.542969 L 147 388.207031 L 527.25 388.207031 L 527.25 365.542969 Z M 147 365.542969 " fill-rule="nonzero"/></g></g><g clip-path="url(#cfd50072fc)"><g clip-path="url(#8af8fa091d)"><path fill="url(#fd756f07e0)" d="M 189.75 75.75 L 189.75 204 L 393.75 204 L 393.75 75.75 Z M 189.75 75.75 " fill-rule="nonzero"/></g></g><path stroke-linecap="butt" transform="matrix(0.75, 0, 0, 0.75, 0.000012225, 0)" fill-opacity="1" fill="#ffffff" fill-rule="nonzero" stroke-linejoin="miter" d="M 550.838568 84.453132 C 550.328152 84.27084 549.817735 84.104173 549.296901 83.95834 C 549.125026 83.906257 548.953151 83.854173 548.781276 83.812507 C 548.411485 83.718757 548.041693 83.630215 547.666693 83.541673 C 547.48961 83.505215 547.312526 83.468757 547.130235 83.437506 C 546.755235 83.369798 546.380235 83.307298 546.005235 83.250006 C 545.786485 83.218756 545.567735 83.192715 545.348985 83.166673 C 545.187526 83.14584 545.026068 83.130215 544.864609 83.11459 C 544.614609 83.088548 544.359401 83.067715 544.104193 83.057298 C 543.973984 83.046881 543.838568 83.036465 543.703151 83.031256 C 543.312526 83.010423 542.921901 83.000006 542.526068 83.000006 L 361.421887 83.000006 C 360.177095 82.994798 358.937512 83.088548 357.703137 83.281256 C 357.302095 83.343756 356.901053 83.416673 356.500011 83.494798 C 346.166677 85.61459 338.213552 94.276049 337.130218 104.973967 C 337.041677 105.8073 337.00001 106.640633 337.00001 107.479175 L 337.00001 478.520871 C 337.00001 489.114621 343.713552 498.135455 353.114595 501.546914 C 353.156261 501.562539 353.197928 501.572956 353.239595 501.588581 C 353.703136 501.755247 354.177095 501.906289 354.656261 502.041706 C 354.828136 502.088581 355.000011 502.140664 355.171886 502.187539 C 355.359386 502.234414 355.541678 502.281289 355.72397 502.322956 C 355.91147 502.364622 356.09897 502.411497 356.28647 502.453164 C 356.463553 502.494831 356.640636 502.526081 356.822928 502.562539 C 357.197928 502.630247 357.56772 502.692747 357.94272 502.750039 C 358.16147 502.781289 358.38022 502.807331 358.604178 502.833372 C 358.765637 502.848997 358.921887 502.869831 359.088553 502.885456 C 359.338553 502.911498 359.593762 502.927123 359.843762 502.942748 C 359.979178 502.953164 360.114595 502.963581 360.244803 502.968789 C 360.635428 502.984414 361.031262 503.000039 361.427095 503.000039 L 542.531276 503.000039 C 543.375026 503.000039 544.208359 502.958373 545.031276 502.869831 C 556.52086 501.703164 565.661486 492.541705 566.828153 481.020871 C 566.911486 480.197954 566.953153 479.359412 566.953153 478.515662 L 566.953153 107.479175 C 566.947945 96.885424 560.234402 87.86459 550.838568 84.453132 Z M 550.838568 84.453132 " stroke="#e1e4e5" stroke-width="4" stroke-opacity="1" stroke-miterlimit="4"/><path stroke-linecap="butt" transform="matrix(0.75, 0, 0, 0.75, 0.000012225, 0)" fill-opacity="1" fill="#ffffff" fill-rule="nonzero" stroke-linejoin="miter" d="M 451.973977 483.057329 C 459.75002 483.057329 466.052103 476.755245 466.052103 468.979203 C 466.052103 461.203161 459.75002 454.901077 451.973977 454.901077 C 444.197935 454.901077 437.895851 461.203161 437.895851 468.979203 C 437.895851 476.755245 444.197935 483.057329 451.973977 483.057329 Z M 451.973977 483.057329 " stroke="#e1e4e5" stroke-width="4" stroke-opacity="1" stroke-miterlimit="4"/><path stroke-linecap="butt" transform="matrix(0.75, 0, 0, 0.75, 0.000012225, 0)" fill-opacity="1" fill="#ffffff" fill-rule="nonzero" stroke-linejoin="miter" d="M 430.859392 102.942716 L 474.265646 102.942716 C 474.588562 102.942716 474.869812 103.0573 475.098979 103.286466 C 475.322937 103.515633 475.437521 103.791675 475.437521 104.114591 C 475.437521 104.437508 475.322937 104.71355 475.098979 104.942717 C 474.869812 105.171883 474.588562 105.286467 474.265646 105.286467 L 430.859392 105.286467 C 430.536476 105.286467 430.255226 105.171883 430.026059 104.942717 C 429.796892 104.71355 429.687517 104.437508 429.687517 104.114591 C 429.687517 103.791675 429.802101 103.515633 430.026059 103.286466 C 430.255226 103.0573 430.536476 102.942716 430.859392 102.942716 Z M 430.859392 102.942716 " stroke="#e1e4e5" stroke-width="2.346" stroke-opacity="1" stroke-miterlimit="4"/><path stroke-linecap="butt" transform="matrix(0.75, 0, 0, 0.75, 0.000012225, 0)" fill-opacity="1" fill="#ffffff" fill-rule="nonzero" stroke-linejoin="miter" d="M 374.598971 120.541676 L 530.526067 120.541676 C 531.838567 120.541676 533.135442 120.666676 534.427109 120.921884 C 535.713567 121.182301 536.963567 121.557301 538.177109 122.06251 C 539.390651 122.56251 540.541692 123.182301 541.635443 123.911468 C 542.729193 124.640635 543.739609 125.46876 544.666693 126.395843 C 545.593776 127.328135 546.421901 128.338552 547.151068 129.427093 C 547.885443 130.520843 548.500026 131.671885 549.000026 132.885427 C 549.505235 134.098969 549.885443 135.348969 550.140652 136.640636 C 550.39586 137.927094 550.526068 139.229178 550.526068 140.541678 L 550.526068 411.437532 C 550.526068 412.750032 550.39586 414.052116 550.140652 415.338574 C 549.885443 416.630241 549.505235 417.880241 549.000026 419.093783 C 548.500026 420.307324 547.885443 421.458366 547.151068 422.546908 C 546.421901 423.640658 545.593776 424.651075 544.666693 425.578158 C 543.739609 426.51045 542.729193 427.338575 541.635443 428.067742 C 540.541692 428.796908 539.390651 429.411492 538.177109 429.9167 C 536.963567 430.4167 535.713567 430.796909 534.427109 431.052117 C 533.135442 431.307325 531.838567 431.437534 530.526067 431.437534 L 374.598971 431.437534 C 373.286471 431.437534 371.984388 431.307325 370.697929 431.052117 C 369.411471 430.796909 368.161471 430.4167 366.947929 429.9167 C 365.734387 429.411492 364.578137 428.796908 363.489595 428.067742 C 362.395845 427.338575 361.385429 426.51045 360.458345 425.578158 C 359.531262 424.651075 358.697928 423.640658 357.968762 422.546908 C 357.239595 421.458366 356.625011 420.307324 356.119803 419.093783 C 355.619803 417.880241 355.239595 416.630241 354.984386 415.338574 C 354.729178 414.052116 354.59897 412.750032 354.59897 411.437532 L 354.59897 140.541678 C 354.59897 139.229178 354.729178 137.927094 354.984386 136.640636 C 355.239595 135.348969 355.619803 134.098969 356.125011 132.885427 C 356.625011 131.671885 357.239595 130.520843 357.968762 129.427093 C 358.697928 128.338552 359.531262 127.328135 360.458345 126.395843 C 361.385429 125.46876 362.395845 124.640635 363.489595 123.911468 C 364.578137 123.182301 365.734387 122.56251 366.947929 122.06251 C 368.161471 121.557301 369.411471 121.182301 370.697929 120.921884 C 371.984388 120.666676 373.286471 120.541676 374.598971 120.541676 Z M 374.598971 120.541676 " stroke="#e1e4e5" stroke-width="4" stroke-opacity="1" stroke-miterlimit="4"/><path fill="#666af6" d="M 314.25 172.722656 L 314.25 176.359375 C 314.25 176.84375 314.34375 177.308594 314.527344 177.753906 C 314.714844 178.199219 314.976562 178.59375 315.316406 178.933594 C 315.660156 179.277344 316.054688 179.539062 316.5 179.722656 C 316.945312 179.90625 317.410156 180 317.894531 180 L 361.605469 180 C 362.089844 180 362.554688 179.90625 363 179.722656 C 363.445312 179.539062 363.839844 179.277344 364.183594 178.933594 C 364.523438 178.59375 364.785156 178.199219 364.972656 177.753906 C 365.15625 177.308594 365.25 176.84375 365.25 176.359375 L 365.25 172.664062 C 365.25 161.652344 352.652344 154.5 339.75 154.5 C 326.847656 154.5 314.25 161.65625 314.25 172.664062 M 330.734375 121.484375 C 325.753906 126.464844 325.753906 134.535156 330.734375 139.515625 C 335.714844 144.496094 343.785156 144.496094 348.765625 139.515625 C 353.746094 134.535156 353.746094 126.464844 348.765625 121.484375 C 343.785156 116.503906 335.714844 116.503906 330.734375 121.484375 Z M 330.734375 121.484375 " fill-opacity="1" fill-rule="evenodd"/><path stroke-linecap="butt" transform="matrix(0.75, 0, 0, 0.75, 0.000012225, 0)" fill-opacity="1" fill="#ffffff" fill-rule="nonzero" stroke-linejoin="miter" d="M 382.500013 266.000021 L 523.500024 266.000021 C 524.322941 266.000021 525.135441 266.078146 525.937525 266.239604 C 526.744816 266.401062 527.526066 266.635437 528.281275 266.953146 C 529.041692 267.265646 529.760442 267.651063 530.442733 268.104188 C 531.125025 268.562521 531.760442 269.083354 532.338567 269.661479 C 532.916692 270.239604 533.437525 270.875021 533.89065 271.557313 C 534.348984 272.239605 534.7344 272.958355 535.0469 273.718771 C 535.364609 274.47398 535.598984 275.25523 535.760442 276.062522 C 535.9219 276.864605 536.000025 277.677105 536.000025 278.500022 C 536.000025 279.322938 535.9219 280.135438 535.760442 280.937522 C 535.598984 281.744814 535.364609 282.526064 535.0469 283.281272 C 534.7344 284.041689 534.348984 284.760439 533.895859 285.442731 C 533.437525 286.125022 532.916692 286.760439 532.338567 287.338564 C 531.760442 287.916689 531.125025 288.437522 530.442733 288.895856 C 529.760442 289.348981 529.041692 289.734398 528.281275 290.046898 C 527.526066 290.364606 526.744816 290.598981 525.937525 290.760439 C 525.135441 290.921898 524.322941 291.000023 523.500024 291.000023 L 382.500013 291.000023 C 381.677097 291.000023 380.864597 290.921898 380.062513 290.760439 C 379.255222 290.598981 378.473972 290.364606 377.718763 290.046898 C 376.958346 289.734398 376.239596 289.348981 375.557305 288.895856 C 374.875013 288.437522 374.239596 287.916689 373.661471 287.338564 C 373.083346 286.760439 372.562513 286.125022 372.104179 285.442731 C 371.651054 284.760439 371.265638 284.041689 370.953138 283.281272 C 370.635429 282.526064 370.401054 281.744814 370.239596 280.937522 C 370.078138 280.135438 370.000013 279.322938 370.000013 278.500022 C 370.000013 277.677105 370.078138 276.864605 370.239596 276.062522 C 370.401054 275.25523 370.635429 274.47398 370.953138 273.718771 C 371.265638 272.958355 371.651054 272.239605 372.104179 271.557313 C 372.562513 270.875021 373.083346 270.239604 373.661471 269.661479 C 374.239596 269.083354 374.875013 268.562521 375.557305 268.104188 C 376.239596 267.651063 376.958346 267.265646 377.718763 266.953146 C 378.473972 266.635437 379.255222 266.401062 380.062513 266.239604 C 380.864597 266.078146 381.677097 266.000021 382.500013 266.000021 Z M 382.500013 266.000021 " stroke="#e1e4e5" stroke-width="4" stroke-opacity="1" stroke-miterlimit="4"/><path stroke-linecap="butt" transform="matrix(0.75, 0, 0, 0.75, 0.000012225, 0)" fill-opacity="1" fill="#ffffff" fill-rule="nonzero" stroke-linejoin="miter" d="M 382.500013 304.000024 L 523.500024 304.000024 C 524.322941 304.000024 525.135441 304.078149 525.937525 304.239607 C 526.744816 304.401065 527.526066 304.63544 528.281275 304.953149 C 529.041692 305.265649 529.760442 305.651065 530.442733 306.104191 C 531.125025 306.562524 531.760442 307.083357 532.338567 307.661482 C 532.916692 308.239607 533.437525 308.875024 533.89065 309.557316 C 534.348984 310.239607 534.7344 310.958358 535.0469 311.718774 C 535.364609 312.473983 535.598984 313.255233 535.760442 314.062524 C 535.9219 314.864608 536.000025 315.677108 536.000025 316.500025 C 536.000025 317.322941 535.9219 318.135441 535.760442 318.937525 C 535.598984 319.744817 535.364609 320.526067 535.0469 321.281275 C 534.7344 322.041692 534.348984 322.760442 533.895859 323.442734 C 533.437525 324.125025 532.916692 324.760442 532.338567 325.338567 C 531.760442 325.916692 531.125025 326.437525 530.442733 326.895859 C 529.760442 327.348984 529.041692 327.734401 528.281275 328.046901 C 527.526066 328.364609 526.744816 328.598984 525.937525 328.760442 C 525.135441 328.921901 524.322941 329.000026 523.500024 329.000026 L 382.500013 329.000026 C 381.677097 329.000026 380.864597 328.921901 380.062513 328.760442 C 379.255222 328.598984 378.473972 328.364609 377.718763 328.046901 C 376.958346 327.734401 376.239596 327.348984 375.557305 326.895859 C 374.875013 326.437525 374.239596 325.916692 373.661471 325.338567 C 373.083346 324.760442 372.562513 324.125025 372.104179 323.442734 C 371.651054 322.760442 371.265638 322.041692 370.953138 321.281275 C 370.635429 320.526067 370.401054 319.744817 370.239596 318.937525 C 370.078138 318.135441 370.000013 317.322941 370.000013 316.500025 C 370.000013 315.677108 370.078138 314.864608 370.239596 314.062524 C 370.401054 313.255233 370.635429 312.473983 370.953138 311.718774 C 371.265638 310.958358 371.651054 310.239607 372.104179 309.557316 C 372.562513 308.875024 373.083346 308.239607 373.661471 307.661482 C 374.239596 307.083357 374.875013 306.562524 375.557305 306.104191 C 376.239596 305.651065 376.958346 305.265649 377.718763 304.953149 C 378.473972 304.63544 379.255222 304.401065 380.062513 304.239607 C 380.864597 304.078149 381.677097 304.000024 382.500013 304.000024 Z M 382.500013 304.000024 " stroke="#e1e4e5" stroke-width="4" stroke-opacity="1" stroke-miterlimit="4"/><path stroke-linecap="butt" transform="matrix(0.75, 0, 0, 0.75, 0.000012225, 0)" fill-opacity="1" fill="#666af6" fill-rule="nonzero" stroke-linejoin="miter" d="M 382.500013 342.000027 L 523.500024 342.000027 C 524.322941 342.000027 525.135441 342.078152 525.937525 342.23961 C 526.744816 342.401068 527.526066 342.635443 528.281275 342.953152 C 529.041692 343.265652 529.760442 343.651068 530.442733 344.104193 C 531.125025 344.562527 531.760442 345.078152 532.338567 345.661485 C 532.916692 346.23961 533.437525 346.875027 533.89065 347.557319 C 534.348984 348.23961 534.7344 348.958361 535.0469 349.718777 C 535.364609 350.473986 535.598984 351.255236 535.760442 352.062527 C 535.9219 352.864611 536.000025 353.677111 536.000025 354.500028 C 536.000025 355.322944 535.9219 356.135444 535.760442 356.937528 C 535.598984 357.74482 535.364609 358.52607 535.0469 359.281278 C 534.7344 360.041695 534.348984 360.760445 533.895859 361.442736 C 533.437525 362.125028 532.916692 362.760445 532.338567 363.33857 C 531.760442 363.916695 531.125025 364.437528 530.442733 364.895862 C 529.760442 365.348987 529.041692 365.734403 528.281275 366.046904 C 527.526066 366.364612 526.744816 366.598987 525.937525 366.760445 C 525.135441 366.921904 524.322941 367.000029 523.500024 367.000029 L 382.500013 367.000029 C 381.677097 367.000029 380.864597 366.921904 380.062513 366.760445 C 379.255222 366.598987 378.473972 366.364612 377.718763 366.046904 C 376.958346 365.734403 376.239596 365.348987 375.557305 364.895862 C 374.875013 364.437528 374.239596 363.916695 373.661471 363.33857 C 373.083346 362.760445 372.562513 362.125028 372.104179 361.442736 C 371.651054 360.760445 371.265638 360.041695 370.953138 359.281278 C 370.635429 358.52607 370.401054 357.74482 370.239596 356.937528 C 370.078138 356.135444 370.000013 355.322944 370.000013 354.500028 C 370.000013 353.677111 370.078138 352.864611 370.239596 352.062527 C 370.401054 351.255236 370.635429 350.473986 370.953138 349.718777 C 371.265638 348.958361 371.651054 348.23961 372.104179 347.557319 C 372.562513 346.875027 373.083346 346.23961 373.661471 345.661485 C 374.239596 345.078152 374.875013 344.562527 375.557305 344.104193 C 376.239596 343.651068 376.958346 343.265652 377.718763 342.953152 C 378.473972 342.635443 379.255222 342.401068 380.062513 342.23961 C 380.864597 342.078152 381.677097 342.000027 382.500013 342.000027 Z M 382.500013 342.000027 " stroke="#666af6" stroke-width="4" stroke-opacity="1" stroke-miterlimit="4"/><path fill="#e1e4e5" d="M 237.59375 231.605469 L 235.496094 231.605469 C 234.988281 231.605469 234.582031 231.195312 234.582031 230.691406 L 234.582031 228.59375 C 234.582031 228.085938 234.992188 227.679688 235.496094 227.679688 L 237.59375 227.679688 C 238.09375 227.679688 238.507812 228.09375 238.507812 228.59375 L 238.507812 230.691406 C 238.511719 231.195312 238.097656 231.605469 237.59375 231.605469 Z M 230.324219 231.605469 L 228.226562 231.605469 C 227.726562 231.605469 227.3125 231.195312 227.3125 230.691406 L 227.3125 228.59375 C 227.3125 228.085938 227.726562 227.679688 228.226562 227.679688 L 230.324219 227.679688 C 230.828125 227.679688 231.238281 228.09375 231.238281 228.59375 L 231.238281 230.691406 C 231.238281 231.195312 230.828125 231.605469 230.324219 231.605469 Z M 223.050781 231.605469 L 220.957031 231.605469 C 220.453125 231.605469 220.039062 231.195312 220.039062 230.691406 L 220.039062 228.59375 C 220.039062 228.085938 220.453125 227.679688 220.957031 227.679688 L 223.050781 227.679688 C 223.554688 227.679688 223.96875 228.09375 223.96875 228.59375 L 223.96875 230.691406 C 223.972656 231.195312 223.558594 231.605469 223.050781 231.605469 Z M 215.785156 231.605469 L 213.6875 231.605469 C 213.183594 231.605469 212.773438 231.195312 212.773438 230.691406 L 212.773438 228.59375 C 212.773438 228.085938 213.183594 227.679688 213.6875 227.679688 L 215.785156 227.679688 C 216.289062 227.679688 216.703125 228.09375 216.703125 228.59375 L 216.703125 230.691406 C 216.699219 230.945312 216.609375 231.160156 216.429688 231.335938 C 216.253906 231.515625 216.035156 231.605469 215.785156 231.605469 Z M 208.515625 231.605469 L 206.417969 231.605469 C 205.914062 231.605469 205.5 231.195312 205.5 230.691406 L 205.5 228.59375 C 205.5 228.085938 205.914062 227.679688 206.417969 227.679688 L 208.515625 227.679688 C 209.019531 227.679688 209.429688 228.09375 209.429688 228.59375 L 209.429688 230.691406 C 209.429688 231.195312 209.019531 231.605469 208.515625 231.605469 Z M 230.058594 223.679688 L 227.960938 223.679688 C 227.460938 223.679688 227.046875 223.269531 227.046875 222.765625 L 227.046875 220.664062 C 227.046875 220.164062 227.460938 219.75 227.960938 219.75 L 230.058594 219.75 C 230.566406 219.75 230.972656 220.164062 230.972656 220.664062 L 230.972656 222.761719 C 230.976562 223.015625 230.886719 223.230469 230.707031 223.410156 C 230.527344 223.589844 230.3125 223.679688 230.058594 223.679688 Z M 222.789062 223.679688 L 220.695312 223.679688 C 220.191406 223.679688 219.777344 223.269531 219.777344 222.765625 L 219.777344 220.664062 C 219.777344 220.164062 220.191406 219.75 220.695312 219.75 L 222.789062 219.75 C 223.292969 219.75 223.703125 220.164062 223.703125 220.664062 L 223.703125 222.761719 C 223.707031 223.015625 223.617188 223.230469 223.4375 223.410156 C 223.261719 223.589844 223.042969 223.679688 222.789062 223.679688 Z M 215.519531 223.679688 L 213.425781 223.679688 C 212.917969 223.679688 212.507812 223.269531 212.507812 222.765625 L 212.507812 220.664062 C 212.507812 220.164062 212.917969 219.75 213.425781 219.75 L 215.519531 219.75 C 216.023438 219.75 216.4375 220.164062 216.4375 220.664062 L 216.4375 222.761719 C 216.4375 223.269531 216.023438 223.679688 215.519531 223.679688 Z M 223.050781 240.121094 L 220.957031 240.121094 C 220.453125 240.121094 220.039062 239.707031 220.039062 239.203125 L 220.039062 237.109375 C 220.039062 236.601562 220.453125 236.195312 220.957031 236.195312 L 223.050781 236.195312 C 223.554688 236.195312 223.96875 236.605469 223.96875 237.109375 L 223.96875 239.203125 C 223.972656 239.707031 223.558594 240.121094 223.050781 240.121094 Z M 215.785156 240.121094 L 213.6875 240.121094 C 213.183594 240.121094 212.773438 239.707031 212.773438 239.203125 L 212.773438 237.109375 C 212.773438 236.601562 213.183594 236.195312 213.6875 236.195312 L 215.785156 236.195312 C 216.289062 236.195312 216.703125 236.605469 216.703125 237.109375 L 216.703125 239.203125 C 216.699219 239.457031 216.609375 239.671875 216.429688 239.851562 C 216.25 240.027344 216.035156 240.117188 215.785156 240.121094 Z M 215.785156 240.121094 " fill-opacity="1" fill-rule="evenodd"/><path fill="#e1e4e5" d="M 467.84375 68.769531 L 450.441406 86.167969 C 450.289062 86.320312 450.113281 86.4375 449.914062 86.519531 C 449.714844 86.605469 449.507812 86.644531 449.292969 86.644531 C 449.078125 86.644531 448.871094 86.605469 448.671875 86.519531 C 448.472656 86.4375 448.296875 86.320312 448.148438 86.167969 L 448.144531 86.167969 C 447.992188 86.015625 447.875 85.839844 447.792969 85.644531 C 447.710938 85.445312 447.671875 85.238281 447.671875 85.023438 C 447.671875 84.808594 447.710938 84.601562 447.792969 84.402344 C 447.875 84.203125 447.992188 84.027344 448.144531 83.875 L 465.546875 66.472656 C 465.699219 66.320312 465.875 66.203125 466.074219 66.121094 C 466.273438 66.039062 466.480469 66 466.695312 66 C 466.910156 66 467.117188 66.039062 467.316406 66.121094 C 467.515625 66.203125 467.691406 66.320312 467.839844 66.472656 L 467.84375 66.472656 C 467.996094 66.625 468.113281 66.800781 468.195312 67 C 468.277344 67.199219 468.316406 67.40625 468.316406 67.621094 C 468.316406 67.835938 468.277344 68.042969 468.195312 68.242188 C 468.113281 68.441406 467.996094 68.617188 467.84375 68.769531 Z M 467.84375 68.769531 " fill-opacity="1" fill-rule="nonzero"/><path fill="#e1e4e5" d="M 457.164062 68.691406 L 452.144531 73.710938 C 451.992188 73.863281 451.816406 73.980469 451.617188 74.0625 C 451.421875 74.144531 451.214844 74.1875 451 74.1875 C 450.78125 74.1875 450.574219 74.144531 450.378906 74.0625 C 450.179688 73.980469 450.003906 73.863281 449.851562 73.710938 C 449.699219 73.558594 449.582031 73.382812 449.5 73.183594 C 449.417969 72.984375 449.375 72.777344 449.375 72.5625 C 449.375 72.347656 449.417969 72.140625 449.5 71.941406 C 449.582031 71.742188 449.699219 71.566406 449.851562 71.414062 L 454.867188 66.398438 C 455.019531 66.246094 455.195312 66.128906 455.394531 66.046875 C 455.59375 65.964844 455.800781 65.921875 456.015625 65.921875 C 456.230469 65.921875 456.4375 65.964844 456.636719 66.046875 C 456.835938 66.128906 457.011719 66.246094 457.164062 66.398438 C 457.316406 66.550781 457.433594 66.726562 457.515625 66.925781 C 457.597656 67.121094 457.640625 67.328125 457.640625 67.546875 C 457.640625 67.761719 457.597656 67.96875 457.515625 68.164062 C 457.433594 68.363281 457.316406 68.539062 457.164062 68.691406 Z M 457.164062 68.691406 " fill-opacity="1" fill-rule="nonzero"/><path fill="#e1e4e5" d="M 221.675781 97.09375 L 212.554688 106.214844 C 212.386719 106.378906 212.1875 106.464844 211.953125 106.464844 C 211.71875 106.464844 211.515625 106.378906 211.351562 106.214844 C 211.183594 106.046875 211.101562 105.847656 211.101562 105.613281 C 211.101562 105.378906 211.183594 105.179688 211.351562 105.011719 L 220.472656 95.890625 C 220.636719 95.726562 220.839844 95.640625 221.074219 95.640625 C 221.308594 95.640625 221.507812 95.726562 221.675781 95.890625 C 221.839844 96.058594 221.921875 96.257812 221.921875 96.492188 C 221.921875 96.726562 221.839844 96.929688 221.675781 97.09375 Z M 221.675781 97.09375 " fill-opacity="1" fill-rule="nonzero"/><path fill="#e1e4e5" d="M 216.078125 97.054688 L 213.445312 99.683594 C 213.28125 99.851562 213.082031 99.933594 212.84375 99.933594 C 212.609375 99.933594 212.410156 99.851562 212.242188 99.683594 C 212.078125 99.519531 211.996094 99.316406 211.996094 99.082031 C 211.996094 98.847656 212.078125 98.648438 212.242188 98.480469 L 214.875 95.851562 C 215.039062 95.683594 215.242188 95.601562 215.476562 95.601562 C 215.710938 95.601562 215.910156 95.683594 216.078125 95.851562 C 216.242188 96.019531 216.328125 96.21875 216.328125 96.453125 C 216.328125 96.6875 216.242188 96.886719 216.078125 97.054688 Z M 216.078125 97.054688 " fill-opacity="1" fill-rule="nonzero"/><path fill="#e1e4e5" d="M 393.75 308.25 C 393.453125 308.25 393.160156 308.222656 392.871094 308.164062 C 392.582031 308.105469 392.300781 308.019531 392.027344 307.90625 C 391.753906 307.792969 391.496094 307.65625 391.25 307.492188 C 391.003906 307.328125 390.777344 307.140625 390.566406 306.933594 C 390.359375 306.722656 390.171875 306.496094 390.007812 306.25 C 389.84375 306.003906 389.707031 305.746094 389.59375 305.472656 C 389.480469 305.199219 389.394531 304.917969 389.335938 304.628906 C 389.277344 304.339844 389.25 304.046875 389.25 303.75 C 389.25 303.453125 389.277344 303.160156 389.335938 302.871094 C 389.394531 302.582031 389.480469 302.300781 389.59375 302.027344 C 389.707031 301.753906 389.84375 301.496094 390.007812 301.25 C 390.171875 301.003906 390.359375 300.777344 390.566406 300.566406 C 390.777344 300.359375 391.003906 300.171875 391.25 300.007812 C 391.496094 299.84375 391.753906 299.707031 392.027344 299.59375 C 392.300781 299.480469 392.582031 299.394531 392.871094 299.335938 C 393.160156 299.277344 393.453125 299.25 393.75 299.25 C 394.046875 299.25 394.339844 299.277344 394.628906 299.335938 C 394.917969 299.394531 395.199219 299.480469 395.472656 299.59375 C 395.746094 299.707031 396.003906 299.84375 396.25 300.007812 C 396.496094 300.171875 396.722656 300.359375 396.933594 300.566406 C 397.140625 300.777344 397.328125 301.003906 397.492188 301.25 C 397.65625 301.496094 397.792969 301.753906 397.90625 302.027344 C 398.019531 302.300781 398.105469 302.582031 398.164062 302.871094 C 398.222656 303.160156 398.25 303.453125 398.25 303.75 C 398.25 304.046875 398.222656 304.339844 398.164062 304.628906 C 398.105469 304.917969 398.019531 305.199219 397.90625 305.472656 C 397.792969 305.746094 397.65625 306.003906 397.492188 306.25 C 397.328125 306.496094 397.140625 306.722656 396.933594 306.933594 C 396.722656 307.140625 396.496094 307.328125 396.25 307.492188 C 396.003906 307.65625 395.746094 307.792969 395.472656 307.90625 C 395.199219 308.019531 394.917969 308.105469 394.628906 308.164062 C 394.339844 308.222656 394.046875 308.25 393.75 308.25 Z M 393.75 308.25 " fill-opacity="1" fill-rule="nonzero"/><path fill="#e1e4e5" d="M 226.5 114.75 C 226.203125 114.75 225.910156 114.722656 225.621094 114.664062 C 225.332031 114.605469 225.050781 114.519531 224.777344 114.40625 C 224.503906 114.292969 224.246094 114.15625 224 113.992188 C 223.753906 113.828125 223.527344 113.640625 223.316406 113.433594 C 223.109375 113.222656 222.921875 112.996094 222.757812 112.75 C 222.59375 112.503906 222.457031 112.246094 222.34375 111.972656 C 222.230469 111.699219 222.144531 111.417969 222.085938 111.128906 C 222.027344 110.839844 222 110.546875 222 110.25 C 222 109.953125 222.027344 109.660156 222.085938 109.371094 C 222.144531 109.082031 222.230469 108.800781 222.34375 108.527344 C 222.457031 108.253906 222.59375 107.996094 222.757812 107.75 C 222.921875 107.503906 223.109375 107.277344 223.316406 107.066406 C 223.527344 106.859375 223.753906 106.671875 224 106.507812 C 224.246094 106.34375 224.503906 106.207031 224.777344 106.09375 C 225.050781 105.980469 225.332031 105.894531 225.621094 105.835938 C 225.910156 105.777344 226.203125 105.75 226.5 105.75 C 226.796875 105.75 227.089844 105.777344 227.378906 105.835938 C 227.667969 105.894531 227.949219 105.980469 228.222656 106.09375 C 228.496094 106.207031 228.753906 106.34375 229 106.507812 C 229.246094 106.671875 229.472656 106.859375 229.683594 107.066406 C 229.890625 107.277344 230.078125 107.503906 230.242188 107.75 C 230.40625 107.996094 230.542969 108.253906 230.65625 108.527344 C 230.769531 108.800781 230.855469 109.082031 230.914062 109.371094 C 230.972656 109.660156 231 109.953125 231 110.25 C 231 110.546875 230.972656 110.839844 230.914062 111.128906 C 230.855469 111.417969 230.769531 111.699219 230.65625 111.972656 C 230.542969 112.246094 230.40625 112.503906 230.242188 112.75 C 230.078125 112.996094 229.890625 113.222656 229.683594 113.433594 C 229.472656 113.640625 229.246094 113.828125 229 113.992188 C 228.753906 114.15625 228.496094 114.292969 228.222656 114.40625 C 227.949219 114.519531 227.667969 114.605469 227.378906 114.664062 C 227.089844 114.722656 226.796875 114.75 226.5 114.75 Z M 226.5 114.75 " fill-opacity="1" fill-rule="nonzero"/><path fill="#e1e4e5" d="M 182.082031 286.3125 C 182.207031 286.785156 182.242188 287.265625 182.175781 287.75 C 182.113281 288.234375 181.957031 288.691406 181.714844 289.113281 C 181.46875 289.535156 181.152344 289.898438 180.765625 290.195312 C 180.375 290.492188 179.945312 290.707031 179.472656 290.832031 C 179 290.957031 178.523438 290.992188 178.039062 290.925781 C 177.550781 290.863281 177.097656 290.707031 176.675781 290.464844 C 176.25 290.21875 175.890625 289.902344 175.59375 289.515625 C 175.292969 289.125 175.082031 288.695312 174.957031 288.222656 C 174.828125 287.75 174.796875 287.273438 174.859375 286.789062 C 174.925781 286.300781 175.078125 285.847656 175.324219 285.425781 C 175.566406 285 175.882812 284.640625 176.273438 284.34375 C 176.660156 284.042969 177.089844 283.832031 177.5625 283.707031 C 178.035156 283.578125 178.515625 283.546875 179 283.609375 C 179.484375 283.675781 179.941406 283.828125 180.363281 284.074219 C 180.785156 284.316406 181.148438 284.632812 181.445312 285.023438 C 181.742188 285.410156 181.957031 285.839844 182.082031 286.3125 Z M 182.082031 286.3125 " fill-opacity="1" fill-rule="nonzero"/><path fill="#f8ae9d" d="M 382.738281 156.671875 C 383.191406 160.175781 384.40625 164.402344 386.371094 165.835938 C 388.601562 167.464844 389.289062 169.191406 389.289062 169.191406 L 391.554688 168.496094 L 394.261719 167.660156 C 394.261719 167.660156 394.265625 167.382812 394.246094 166.925781 C 394.226562 166.316406 394.179688 165.710938 394.101562 165.109375 C 394.101562 165.109375 393.585938 164 394.308594 162.921875 C 395.035156 161.84375 395.367188 160 394.855469 158.707031 C 394.351562 157.421875 394.246094 154.507812 393.765625 154.484375 C 392.605469 154.417969 393.398438 158.570312 392.757812 159.15625 C 392.183594 159.691406 391.6875 159.347656 391.601562 159.273438 L 391.582031 159.261719 C 388.769531 157.160156 386.691406 148.863281 384.777344 149.476562 C 384.066406 149.703125 382.542969 155.183594 382.738281 156.671875 Z M 497.042969 242.898438 C 497.042969 242.898438 494.644531 247.054688 495.71875 249.449219 C 496.792969 251.847656 500.511719 255.042969 501.472656 256.296875 C 502.429688 257.546875 505.675781 260.855469 506.984375 258.726562 C 508.289062 256.605469 505.980469 250.957031 504.382812 248.832031 C 502.78125 246.699219 502.628906 243.039062 502.628906 243.039062 Z M 497.042969 242.898438 " fill-opacity="1" fill-rule="nonzero"/><path fill="#f8ae9d" d="M 495.507812 248.757812 C 495.507812 248.757812 495.691406 253.335938 495.910156 254.558594 C 496.128906 255.78125 496.34375 255.40625 497.179688 254.585938 C 498.019531 253.765625 498.007812 251.367188 498.320312 251.210938 C 498.636719 251.050781 495.507812 248.757812 495.507812 248.757812 Z M 495.507812 248.757812 " fill-opacity="1" fill-rule="nonzero"/><path fill="#31446c" d="M 453.519531 156.171875 C 453.519531 156.171875 425.519531 186.355469 416.800781 191.085938 L 394.839844 165.160156 C 394.839844 165.160156 390.714844 165.449219 388.132812 168.925781 C 388.132812 168.925781 396.65625 205.488281 412.203125 210.550781 C 427.75 215.617188 459.445312 180.015625 459.445312 180.015625 Z M 427.410156 377.417969 L 456.164062 377.417969 C 457.546875 375.789062 457.039062 369.777344 456.832031 367.8125 C 456.789062 367.414062 456.757812 367.1875 456.757812 367.1875 C 456.757812 367.1875 446.9375 359.605469 445.589844 365.410156 C 445.550781 365.59375 445.5 365.769531 445.445312 365.949219 C 443.746094 371.378906 436.125 373.84375 431.726562 374.535156 C 428.863281 374.980469 427.804688 376.414062 427.410156 377.417969 Z M 427.410156 377.417969 " fill-opacity="1" fill-rule="nonzero"/><path fill="#31446c" d="M 446.769531 377.417969 L 475.523438 377.417969 C 476.90625 375.789062 476.398438 369.777344 476.191406 367.8125 C 476.144531 367.414062 476.117188 367.1875 476.117188 367.1875 C 476.117188 367.1875 466.296875 359.605469 464.949219 365.410156 C 464.910156 365.59375 464.859375 365.769531 464.804688 365.949219 C 463.105469 371.378906 455.484375 373.847656 451.085938 374.535156 C 448.222656 374.980469 447.164062 376.414062 446.769531 377.417969 Z M 446.769531 377.417969 " fill-opacity="1" fill-rule="nonzero"/><path fill="#666af6" d="M 435.265625 248.132812 C 435.265625 248.132812 436.640625 263.011719 438.257812 280.894531 C 440.453125 305.1875 443.09375 335.027344 443.355469 340.679688 C 443.808594 350.5 445.617188 366.199219 445.617188 366.199219 C 445.617188 366.199219 449.917969 369.929688 458.519531 368.355469 C 458.519531 368.355469 466.1875 345.941406 468.375 322.222656 L 468.476562 321.050781 C 470.515625 296.910156 473.679688 246.066406 473.679688 246.066406 Z M 435.265625 248.132812 " fill-opacity="1" fill-rule="nonzero"/><path fill="#666af6" d="M 443.0625 249.152344 C 443.0625 249.152344 445.65625 263.882812 448.734375 281.589844 C 452.917969 305.644531 458.003906 335.195312 458.722656 340.808594 C 459.96875 350.554688 463.074219 366.078125 463.074219 366.078125 C 463.074219 366.078125 467.746094 369.539062 476.378906 367.464844 C 476.378906 367.464844 482.386719 344.695312 482.714844 320.957031 L 482.722656 319.785156 C 482.863281 295.628906 482.007812 244.828125 482.007812 244.828125 Z M 443.0625 249.152344 " fill-opacity="1" fill-rule="nonzero"/><path fill="#f8ae9d" d="M 447.519531 161.609375 C 457.398438 164.726562 473.703125 155.933594 473.703125 155.933594 C 473.703125 155.933594 465.386719 149.46875 465.863281 135.25 L 458.222656 141.410156 L 453.03125 145.589844 C 453.03125 145.589844 453.054688 148.058594 453.621094 152.378906 C 453.773438 153.511719 454.046875 155.289062 453.195312 156.199219 C 449.886719 159.730469 447.519531 161.609375 447.519531 161.609375 Z M 447.519531 161.609375 " fill-opacity="1" fill-rule="nonzero"/><path fill="#f8ae9d" d="M 450.011719 145.359375 C 450.011719 145.359375 466.335938 148.070312 467.867188 137.878906 C 469.398438 127.6875 472.535156 121.171875 462.179688 119.011719 C 451.824219 116.851562 449.207031 120.429688 447.871094 123.707031 C 446.53125 126.984375 445.808594 144.390625 450.011719 145.359375 Z M 450.011719 145.359375 " fill-opacity="1" fill-rule="nonzero"/><path fill="#31446c" d="M 433.722656 253.40625 C 434.023438 253.652344 434.367188 253.800781 434.765625 253.800781 C 438.476562 253.75 449.296875 255.8125 458.453125 254.871094 C 466.171875 254.128906 473.007812 251.84375 480.339844 248.558594 C 481.316406 248.117188 483.558594 246.921875 483.507812 245.832031 C 483.476562 244.640625 483.359375 242.914062 483.207031 240.734375 C 482.6875 233.160156 481.785156 220.132812 482.667969 205.105469 C 482.824219 202.304688 482.910156 199.53125 482.921875 196.796875 C 482.996094 176.429688 478.960938 158.515625 470.839844 152.453125 C 470.144531 151.957031 465.890625 154.039062 461.980469 155.964844 C 458.367188 157.746094 455.535156 157.933594 452.121094 157.242188 L 447.929688 160.265625 C 443.773438 164.125 439.21875 169.375 437.238281 177.339844 C 435.554688 184.121094 434.566406 196.34375 434.023438 209.011719 C 433.777344 214.753906 433.578125 220.546875 433.527344 226.035156 L 433.527344 226.230469 C 433.476562 226.773438 433.476562 227.371094 433.476562 227.914062 C 433.28125 242.023438 433.476562 253.207031 433.722656 253.40625 Z M 433.722656 253.40625 " fill-opacity="1" fill-rule="nonzero"/><path fill="#31446c" d="M 499.492188 245.015625 C 496.394531 245.4375 493.085938 245 493.085938 245 C 493.085938 245 485.617188 216.378906 484.59375 213.746094 C 483.570312 211.113281 459.484375 179.242188 459.484375 179.242188 L 471.808594 152.921875 C 471.808594 152.921875 497.0625 201.230469 499.519531 207.957031 C 503.582031 219.066406 503.804688 243.46875 503.804688 243.46875 C 503.804688 243.46875 501.925781 244.6875 499.492188 245.015625 Z M 469.703125 134.226562 C 468.816406 136.066406 466.238281 136.335938 466.472656 134.3125 C 466.746094 132.003906 466.742188 128.988281 464.867188 129.546875 C 462.992188 130.109375 462.894531 131.613281 462.125 130.734375 C 461.355469 129.859375 461.34375 126.164062 455.757812 125.90625 C 450.175781 125.648438 447.910156 127.589844 445.316406 126.449219 C 443.761719 125.765625 443.085938 124.082031 442.796875 122.84375 C 442.714844 122.492188 442.972656 122 443.207031 122.277344 C 443.425781 122.535156 443.984375 122.519531 443.824219 122.21875 C 442.84375 120.351562 441.371094 116.277344 445.121094 113.242188 C 450.136719 109.183594 455.246094 111.839844 458.148438 112.015625 C 464.542969 112.402344 468.671875 112.785156 470.757812 116.984375 C 472.488281 120.472656 472.191406 129.082031 469.703125 134.226562 Z M 469.703125 134.226562 " fill-opacity="1" fill-rule="nonzero"/><g clip-path="url(#0609802390)"><g clip-path="url(#35fed31f18)"><path fill="url(#dcc0a84962)" d="M 167.460938 320.925781 L 167.460938 338.027344 L 184.574219 338.027344 L 184.574219 320.925781 Z M 167.460938 320.925781 " fill-rule="nonzero"/></g></g><path fill="#e1e4e5" d="M 506.25 346.125 C 506.25 346.445312 506.21875 346.761719 506.15625 347.074219 C 506.09375 347.390625 506 347.695312 505.878906 347.992188 C 505.757812 348.285156 505.605469 348.566406 505.429688 348.832031 C 505.25 349.097656 505.046875 349.347656 504.820312 349.570312 C 504.597656 349.796875 504.347656 350 504.082031 350.179688 C 503.816406 350.355469 503.535156 350.507812 503.242188 350.628906 C 502.945312 350.75 502.640625 350.84375 502.324219 350.90625 C 502.011719 350.96875 501.695312 351 501.375 351 C 501.054688 351 500.738281 350.96875 500.425781 350.90625 C 500.109375 350.84375 499.804688 350.75 499.507812 350.628906 C 499.214844 350.507812 498.933594 350.355469 498.667969 350.179688 C 498.398438 350 498.152344 349.796875 497.929688 349.570312 C 497.703125 349.347656 497.5 349.097656 497.320312 348.832031 C 497.144531 348.566406 496.992188 348.285156 496.871094 347.992188 C 496.75 347.695312 496.65625 347.390625 496.59375 347.074219 C 496.53125 346.761719 496.5 346.445312 496.5 346.125 C 496.5 345.804688 496.53125 345.488281 496.59375 345.175781 C 496.65625 344.859375 496.75 344.554688 496.871094 344.257812 C 496.992188 343.964844 497.144531 343.683594 497.320312 343.417969 C 497.5 343.148438 497.703125 342.902344 497.929688 342.679688 C 498.152344 342.453125 498.398438 342.25 498.667969 342.070312 C 498.933594 341.894531 499.214844 341.742188 499.507812 341.621094 C 499.804688 341.5 500.109375 341.40625 500.425781 341.34375 C 500.738281 341.28125 501.054688 341.25 501.375 341.25 C 501.695312 341.25 502.011719 341.28125 502.324219 341.34375 C 502.640625 341.40625 502.945312 341.5 503.242188 341.621094 C 503.535156 341.742188 503.816406 341.894531 504.082031 342.070312 C 504.347656 342.25 504.597656 342.453125 504.820312 342.679688 C 505.046875 342.902344 505.25 343.148438 505.429688 343.417969 C 505.605469 343.683594 505.757812 343.964844 505.878906 344.257812 C 506 344.554688 506.09375 344.859375 506.15625 345.175781 C 506.21875 345.488281 506.25 345.804688 506.25 346.125 Z M 506.25 346.125 " fill-opacity="1" fill-rule="nonzero"/><path fill="#666af6" d="M 275.640625 201.683594 L 264.011719 198.496094 L 273.023438 205.15625 C 267 213.09375 260.738281 221.671875 260.164062 231.785156 C 259.964844 235.089844 259.566406 238.21875 258.898438 241.140625 L 245.167969 244.121094 L 241.585938 244.890625 L 246.175781 245.273438 L 257.480469 246.222656 C 256.691406 248.554688 255.757812 250.746094 254.671875 252.773438 C 249.601562 262.308594 240.703125 290.003906 231.003906 291.554688 L 230.996094 291.554688 C 230.699219 290.964844 216.816406 263.660156 229.632812 221.898438 C 231.296875 216.519531 233.492188 211.367188 236.21875 206.441406 C 236.304688 206.28125 236.390625 206.128906 236.476562 205.976562 C 252.046875 178.167969 280.273438 164.679688 284.140625 178.863281 C 286.261719 186.628906 281.484375 193.925781 275.640625 201.683594 Z M 275.640625 201.683594 " fill-opacity="1" fill-rule="nonzero"/><path fill="#666af6" d="M 254.675781 252.792969 C 247.03125 277.34375 240.703125 290.023438 231.003906 291.574219 L 230.996094 291.574219 C 230.605469 291.574219 209.363281 291.269531 227.84375 224.535156 C 229.398438 218.949219 233.480469 211.371094 236.21875 206.460938 C 236.304688 206.300781 236.390625 206.148438 236.476562 205.996094 C 235.640625 213.027344 235.257812 223.507812 238.34375 232.996094 C 238.34375 232.996094 240.464844 238.335938 245.167969 244.140625 L 241.585938 244.910156 L 246.175781 245.292969 C 248.449219 247.910156 251.265625 250.574219 254.675781 252.792969 Z M 254.675781 252.792969 " fill-opacity="1" fill-rule="nonzero"/><path stroke-linecap="butt" transform="matrix(0.75, 0, 0, 0.75, 0.000012225, 0)" fill="none" stroke-linejoin="miter" d="M 307.802091 431.515659 C 306.901049 304.29169 352.078136 243.369811 376.020846 233.848977 " stroke="#666af6" stroke-width="2.5" stroke-opacity="1" stroke-miterlimit="10"/><path fill="#666af6" d="M 230.777344 233.15625 L 224.390625 238.914062 L 230.929688 236.933594 C 231.421875 256.960938 227.808594 275.992188 218.089844 277.746094 C 205.203125 280.097656 197.988281 245.71875 197.542969 221.507812 L 206.753906 223.90625 L 197.628906 217.871094 C 197.675781 216.367188 197.761719 212 197.875 210.667969 C 199.152344 196.429688 203.9375 181.90625 212.53125 172.867188 C 217.878906 181.707031 222.449219 191.898438 225.683594 201.988281 C 228.398438 210.421875 230.222656 221.785156 230.777344 233.15625 Z M 230.777344 233.15625 " fill-opacity="1" fill-rule="nonzero"/><path fill="#666af6" d="M 197.867188 210.667969 L 225.683594 201.988281 C 222.457031 191.898438 217.871094 181.714844 212.53125 172.867188 C 203.949219 181.90625 199.140625 196.429688 197.867188 210.667969 Z M 197.867188 210.667969 " fill-opacity="1" fill-rule="nonzero"/><path stroke-linecap="butt" transform="matrix(0.75, 0, 0, 0.75, 0.000012225, 0)" fill="none" stroke-linejoin="miter" d="M 285.468756 236.973977 C 290.546881 290.536481 292.687506 392.432322 289.609381 429.208367 " stroke="#666af6" stroke-width="2.5" stroke-opacity="1" stroke-miterlimit="10"/><path fill="#666af6" d="M 205.433594 291.648438 C 198.085938 294.65625 185.742188 278.675781 176.242188 257.738281 C 175.691406 256.511719 175.152344 255.277344 174.625 254.039062 C 173.589844 251.605469 172.613281 249.148438 171.695312 246.671875 L 177.621094 245.710938 L 169.902344 241.65625 C 165.746094 229.292969 163.015625 216.464844 163.03125 205.5 L 191.460938 211.191406 C 198.21875 222.269531 203.726562 237.679688 206.992188 252.078125 L 204.070312 260.5 L 208.164062 257.683594 C 211.410156 274.785156 211.105469 289.335938 205.433594 291.648438 Z M 205.433594 291.648438 " fill-opacity="1" fill-rule="nonzero"/><path stroke-linecap="butt" transform="matrix(0.75, 0, 0, 0.75, 0.000012225, 0)" fill="none" stroke-linejoin="miter" d="M 228.583335 282.453147 C 256.395837 340.70836 284.177089 405.364615 281.927089 432.88545 " stroke="#666af6" stroke-width="2.5" stroke-opacity="1" stroke-miterlimit="10"/><path fill="#666af6" d="M 210.226562 239.441406 C 210.226562 239.441406 201.792969 235.359375 197.386719 225.078125 L 180.578125 222.914062 L 196.042969 221.191406 C 195.117188 217.890625 194.605469 214.117188 194.820312 209.757812 C 194.84375 209.265625 194.839844 208.785156 194.867188 208.292969 C 190.503906 208.375 184.867188 208.324219 184.335938 208.304688 L 194.886719 202.894531 C 193.859375 175.425781 178.785156 158.589844 170.65625 178.648438 C 168.996094 182.761719 166.890625 187.34375 164.992188 192.832031 L 169.164062 204.882812 L 163.050781 198.664062 C 162.503906 200.453125 162.417969 200.933594 162.320312 202.0625 C 161.460938 211.871094 166.394531 221.285156 174.632812 226.722656 C 184.953125 233.503906 200.761719 242.292969 210.226562 239.441406 Z M 210.226562 239.441406 " fill-opacity="1" fill-rule="nonzero"/><path stroke-linecap="butt" transform="matrix(0.75, 0, 0, 0.75, 0.000012225, 0)" fill-opacity="1" fill="#ffffff" fill-rule="nonzero" stroke-linejoin="miter" d="M 267.072921 489.875038 L 271.67188 418.390658 L 314.843758 418.390658 L 319.817717 489.80733 C 320.348967 497.52608 314.234383 504.078164 306.494799 504.078164 L 280.390631 504.078164 C 272.677088 504.078164 266.578129 497.567747 267.072921 489.875038 Z M 267.072921 489.875038 " stroke="#e1e4e5" stroke-width="4" stroke-opacity="1" stroke-miterlimit="4"/><path stroke-linecap="butt" transform="matrix(0.75, 0, 0, 0.75, 0.000012225, 0)" fill-opacity="1" fill="#e1e4e5" fill-rule="nonzero" stroke-linejoin="miter" d="M 264.718754 412.057324 L 322.234384 412.057324 L 322.234384 420.723991 L 264.718754 420.723991 Z M 264.718754 412.057324 " stroke="#e1e4e5" stroke-width="4" stroke-opacity="1" stroke-miterlimit="4"/><path fill="#676aee" d="M 218.679688 94.414062 C 219.289062 94.671875 219.894531 94.941406 220.484375 95.246094 C 220.976562 95.5 221.460938 95.738281 221.925781 95.960938 C 224.550781 92.707031 222.6875 87.832031 218.289062 87.644531 C 221.664062 88.652344 222.246094 93.101562 218.679688 94.414062 " fill-opacity="1" fill-rule="nonzero"/><g clip-path="url(#d8ed0d030b)"><path fill="#676aee" d="M 213.878906 95.960938 C 215.441406 95.960938 217.125 96.972656 217.125 96.972656 C 215.117188 96.558594 215.542969 97.519531 214.832031 97.519531 C 214.351562 97.519531 213.867188 97.007812 213.390625 96.742188 C 212.972656 96.507812 212.53125 96.519531 212.53125 96.519531 C 212.53125 96.519531 212.90625 95.960938 213.878906 95.960938 Z M 227.875 99.96875 C 227.992188 100.3125 227.875 100.757812 227.875 100.757812 C 227.714844 99.488281 226.753906 99.882812 226.753906 99.882812 C 226.875 99.113281 227.625 99.234375 227.875 99.96875 Z M 224.207031 78.933594 C 231.011719 82.941406 235.574219 90.339844 235.574219 98.804688 C 235.574219 105.488281 232.730469 111.507812 228.183594 115.714844 C 223.972656 115.339844 222.125 110.941406 217.972656 110.25 C 218.589844 108.351562 220.648438 107.765625 220.648438 107.765625 C 214.613281 107.765625 213.226562 114.117188 213.226562 114.117188 C 213.109375 112.757812 213.632812 108.96875 217.046875 106.792969 C 220.039062 104.886719 224.382812 104.882812 225.636719 106.378906 C 228.277344 104.832031 229.816406 100.183594 227.835938 98.359375 C 227.554688 98.097656 227.183594 98.175781 226.835938 98.335938 C 225.417969 99.007812 222.875 97.90625 219.058594 95.949219 C 217.953125 95.378906 216.792969 94.9375 215.65625 94.425781 C 213.3125 93.367188 210.625 93.078125 208.105469 93.617188 C 208.105469 93.617188 208.003906 93.386719 207.679688 93.363281 C 206.785156 93.292969 204.835938 93.296875 203.445312 92.585938 C 198.898438 90.253906 201.109375 85.296875 205.03125 85.597656 C 198.597656 83.4375 193.789062 93.839844 205.589844 97.789062 C 205.589844 97.789062 204.554688 98.21875 203.300781 99.191406 C 202.152344 100.078125 200.863281 101.515625 199.132812 101.40625 C 200.597656 102.753906 202.351562 103.070312 204.394531 102.65625 C 204.394531 102.65625 197.714844 108.730469 199.1875 117.589844 C 194.660156 114.367188 191.347656 109.550781 190.070312 103.957031 C 191.632812 115.757812 201.734375 124.863281 213.964844 124.863281 C 227.277344 124.863281 238.066406 114.070312 238.066406 100.757812 C 238.066406 91.109375 232.398438 82.785156 224.207031 78.933594 " fill-opacity="1" fill-rule="nonzero"/></g><g clip-path="url(#72cf50a31e)"><g clip-path="url(#d5cd8399ac)"><g clip-path="url(#9ca787775b)"><path fill="#676aee" d="M 462.417969 74.503906 C 462.816406 74.925781 463.210938 75.351562 463.578125 75.800781 C 463.890625 76.175781 464.195312 76.535156 464.492188 76.878906 C 467.726562 75.171875 467.917969 70.605469 464.449219 68.929688 C 466.8125 70.910156 465.738281 74.691406 462.417969 74.503906 " fill-opacity="1" fill-rule="nonzero"/></g></g></g><g clip-path="url(#411f930e95)"><g clip-path="url(#d5ccaabd05)"><g clip-path="url(#42e3a8f88e)"><g clip-path="url(#3b4c0394f9)"><path fill="#676aee" d="M 458.023438 74.085938 C 459.277344 74.628906 460.28125 76.023438 460.28125 76.023438 C 458.808594 74.992188 458.820312 75.914062 458.25 75.667969 C 457.863281 75.5 457.648438 74.921875 457.359375 74.542969 C 457.105469 74.210938 456.75 74.066406 456.75 74.066406 C 456.75 74.066406 457.238281 73.75 458.023438 74.085938 Z M 467.878906 82.160156 C 467.855469 82.476562 467.605469 82.792969 467.605469 82.792969 C 467.917969 81.71875 467.011719 81.703125 467.011719 81.703125 C 467.375 81.125 467.933594 81.484375 467.878906 82.160156 Z M 472.230469 63.984375 C 476.304688 69.5625 477.410156 77.089844 474.472656 83.894531 C 472.15625 89.265625 467.78125 93.113281 462.667969 94.921875 C 459.417969 93.15625 459.457031 88.984375 456.355469 86.984375 C 457.515625 85.675781 459.367188 85.917969 459.367188 85.917969 C 454.519531 83.828125 451.203125 88.449219 451.203125 88.449219 C 451.582031 87.316406 453.316406 84.453125 456.8125 83.890625 C 459.878906 83.394531 463.371094 84.898438 463.859375 86.535156 C 466.515625 86.207031 469.367188 83.003906 468.40625 80.851562 C 468.273438 80.546875 467.945312 80.476562 467.613281 80.488281 C 466.238281 80.535156 464.578125 78.769531 462.191406 75.871094 C 461.5 75.03125 460.71875 74.273438 459.984375 73.46875 C 458.46875 71.804688 456.40625 70.640625 454.199219 70.199219 C 454.199219 70.199219 454.195312 69.980469 453.941406 69.847656 C 453.246094 69.484375 451.679688 68.808594 450.808594 67.753906 C 447.964844 64.304688 451.460938 61.089844 454.507812 62.691406 C 450.085938 58.722656 442.613281 65.414062 450.726562 72.679688 C 450.726562 72.679688 449.746094 72.667969 448.402344 73.011719 C 447.171875 73.324219 445.636719 74.035156 444.285156 73.347656 C 444.996094 74.9375 446.292969 75.800781 448.078125 76.175781 C 448.078125 76.175781 440.605469 78.742188 438.71875 86.375 C 436.195312 82.214844 435.203125 77.191406 436.117188 72.253906 C 433.28125 82.28125 438.242188 93.101562 448.070312 97.339844 C 458.765625 101.957031 471.183594 97.027344 475.796875 86.328125 C 479.144531 78.574219 477.476562 69.917969 472.230469 63.984375 " fill-opacity="1" fill-rule="nonzero"/></g></g></g></g></svg>